<?xml version="1.0" encoding="UTF-8"?>
<!DOCTYPE svg PUBLIC "-//W3C//DTD SVG 1.1//EN" "http://www.w3.org/Graphics/SVG/1.1/DTD/svg11.dtd">
<!-- Creator: CorelDRAW X7 -->
<svg xmlns="http://www.w3.org/2000/svg" xml:space="preserve" width="110.415mm" height="31.3512mm" version="1.1" style="shape-rendering:geometricPrecision; text-rendering:geometricPrecision; image-rendering:optimizeQuality; fill-rule:evenodd; clip-rule:evenodd"
viewBox="0 0 13985 3971"
 xmlns:xlink="http://www.w3.org/1999/xlink">
 <defs>
  <style type="text/css">
   <![CDATA[
    .fil0 {fill:#EF7F1A;fill-rule:nonzero}
    .fil1 {fill:url(#id0)}
   ]]>
  </style>
  <linearGradient id="id0" gradientUnits="userSpaceOnUse" x1="6872.71" y1="432.55" x2="7112.66" y2="1785.63">
   <stop offset="0" style="stop-opacity:1; stop-color:#037BBB"/>
   <stop offset="1" style="stop-opacity:1; stop-color:#EF7F1A"/>
  </linearGradient>
 </defs>
 <g id="Layer_x0020_1">
  <metadata id="CorelCorpID_0Corel-Layer"/>
  <g id="_320800888">
   <path class="fil0" d="M378 3938l126 -845 339 845 151 0 355 -845 107 845 381 0 -220 -1467 -381 0 -314 783 -297 -783 -376 0 -249 1467 378 0zm1967 0l383 0 0 -704 548 -763 -462 0 -266 400 -278 -400 -455 0 530 763 0 704zm1899 -1467l-841 0 0 1467 381 0 0 -576 418 0 0 -324 -418 0 0 -244 460 0 0 -323zm1128 1467l407 0 -552 -1467 -416 0 -563 1467 403 0 99 -246 532 0 90 246zm-517 -537l161 -475 165 475 -326 0zm1094 -930l0 1467 380 0 0 -563 366 563 473 0 -460 -601c68,-13 145,-46 202,-101 73,-70 117,-180 117,-306 0,-116 -42,-244 -126,-330 -107,-112 -248,-129 -358,-129l-594 0zm380 294l73 0c84,0 147,22 183,58 33,30 50,79 50,123 0,46 -20,94 -48,123 -46,44 -128,59 -185,59l-73 0 0 -363zm1833 -294l-834 0 0 1467 834 0 0 -323 -453 0 0 -253 429 0 0 -324 -429 0 0 -244 453 0 0 -323zm176 1335c106,73 198,108 222,117 108,39 196,48 288,48 157,0 308,-24 434,-150 105,-105 138,-235 138,-369 0,-101 -19,-183 -94,-262 -77,-84 -174,-117 -266,-145l-117 -35c-90,-27 -117,-53 -128,-66 -15,-20 -19,-40 -19,-66 0,-33 15,-58 37,-80 37,-35 88,-44 125,-44 51,0 137,9 251,99l152 -297c-139,-72 -308,-118 -453,-118 -178,0 -302,63 -376,138 -64,64 -135,174 -135,354 0,75 9,179 84,260 59,66 150,99 211,119l99 31c95,28 152,44 189,77 31,26 42,59 42,88 0,37 -15,70 -37,92 -24,26 -71,51 -148,51 -132,0 -255,-73 -336,-150l-163 308zm1703 -1335l-381 0 0 1467 381 0 0 -594 550 0 0 594 383 0 0 -1467 -383 0 0 547 -550 0 0 -547zm1241 0l0 842c0,156 15,343 143,482 90,97 255,176 486,176 207,0 361,-57 484,-183 158,-160 165,-321 165,-475l0 -842 -381 0 0 836c0,81 2,189 -86,266 -41,37 -110,64 -176,64 -66,0 -136,-29 -180,-71 -73,-70 -75,-165 -75,-226l0 -869 -380 0zm2197 1467c181,0 319,-57 399,-139 55,-55 107,-149 107,-288 0,-116 -39,-211 -99,-268 -46,-44 -123,-79 -200,-88 55,-24 88,-57 119,-115 31,-61 42,-116 42,-180 0,-130 -40,-220 -90,-275 -91,-99 -216,-114 -322,-114l-567 0 0 1467 611 0zm-231 -1175l71 0c75,0 121,20 145,44 22,24 35,62 35,99 0,33 -11,73 -35,97 -40,42 -106,46 -145,46l-71 0 0 -286zm0 570l80 0c94,0 189,2 235,48 22,22 37,60 37,106 0,42 -13,75 -30,95 -42,48 -130,59 -236,59l-86 0 0 -308z"/>
   <path class="fil1" d="M3409 1935c1870,-150 3471,-2922 4501,-1559 -1371,-118 -923,1359 226,867 807,-338 1645,-732 2440,-658 -884,168 -1542,719 -2283,1158 -1534,1099 -2927,34 -1444,-615 -215,-339 -685,-285 -1141,102 -655,448 -1242,941 -2299,705z"/>
  </g>
 </g>
</svg>
